<svg width="42" height="44" viewBox="0 0 42 44" fill="none" xmlns="http://www.w3.org/2000/svg">
<path d="M21.0507 29.9092L21.0412 33.8572L3.92969 43.7367L4.05485 16.0722L27.8834 2.25781L27.887 25.9517L41.5774 33.9156L38.1301 35.8324L24.2978 28.0115V8.27277L7.3508 18.0486V37.8076L21.0507 29.9092Z" fill="#2372B5"/>
<path d="M0.503906 41.7585L0.587349 14.094L24.4624 0.261719L27.8812 2.25597L4.05257 16.0704L3.92741 43.7349L0.503906 41.7585Z" fill="#09539D"/>
<path d="M21.0493 10.1449L21.0469 29.9099L38.15 39.7858L38.1262 35.8331L24.294 28.0122V8.27344L21.0493 10.1449Z" fill="#CA2027"/>
<path d="M7.34766 33.9133L17.6158 27.9258L21.0476 29.9069L7.34766 37.8053V33.9133Z" fill="#09539D"/>
<path d="M41.5762 37.8072V33.9141L38.1289 35.8308L38.1527 39.7836L41.5762 37.8072Z" fill="#F26A4D"/>
<path d="M17.5922 4.31323L21.0228 6.25862L21.0514 10.0195C21.0514 10.0195 21.0776 10.116 21.0228 10.1828C20.968 10.2483 24.3116 8.22427 24.3116 8.22427L24.2818 4.34422L20.8261 2.375L17.5469 4.26794L17.5922 4.31323Z" fill="#EDD87D"/>
<path d="M24.2852 4.34624L24.315 5.06146L24.2995 28.0115L38.1317 35.8324L41.5791 33.9156L27.8886 25.9517L27.8851 2.25781L24.2852 4.34624Z" fill="#EF3D2C"/>
<path d="M24.2865 4.3444L27.8864 2.25597L24.4677 0.261719L20.832 2.37518L24.2865 4.3444Z" fill="#CA2027"/>
<g clip-path="url(#clip0_988_2071)">
<path d="M21.0412 6.28715L24.3097 4.37157L20.854 2.40234L17.5664 4.29528L21.0412 6.28715Z" fill="#F6BB31"/>
</g>
<defs>
<clipPath id="clip0_988_2071">
<rect width="6.74329" height="3.88481" fill="white" transform="translate(17.5664 2.40234)"/>
</clipPath>
</defs>
</svg>
