<svg width="37" height="36" viewBox="0 0 37 36" fill="none" xmlns="http://www.w3.org/2000/svg">
<path d="M19.9378 15.9239H19.9654V15.8805L19.9378 15.9239ZM19.9378 15.9239H19.9654V15.8805L19.9378 15.9239ZM19.9378 15.9239H19.9654V15.8805L19.9378 15.9239ZM19.9378 15.9239H19.9654V15.8805L19.9378 15.9239ZM19.9378 15.9239H19.9654V15.8805L19.9378 15.9239ZM19.9378 15.9239H19.9654V15.8805L19.9378 15.9239ZM19.9378 15.9239H19.9654V15.8805L19.9378 15.9239ZM19.9378 15.9239H19.9654V15.8805L19.9378 15.9239ZM19.9378 15.9239H19.9654V15.8805L19.9378 15.9239ZM19.9378 15.9239H19.9654V15.8805L19.9378 15.9239ZM19.9378 15.9239H19.9654V15.8805L19.9378 15.9239ZM19.9378 15.9239H19.9654V15.8805L19.9378 15.9239ZM19.9378 15.9239H19.9654V15.8805L19.9378 15.9239ZM19.9378 15.9239H19.9654V15.8805L19.9378 15.9239ZM19.9378 15.9239H19.9654V15.8805L19.9378 15.9239ZM19.9378 15.9239H19.9654V15.8805L19.9378 15.9239ZM18.1445 0.000976562C14.5845 0.000976562 11.1044 1.05666 8.14427 3.03452C5.18419 5.01239 2.87708 7.8236 1.51471 11.1127C0.15233 14.4017 -0.204129 18.0209 0.490404 21.5126C1.18494 25.0043 2.89927 28.2115 5.41662 30.7289C7.93396 33.2462 11.1413 34.9606 14.6329 35.6551C18.1246 36.3496 21.7438 35.9932 25.0328 34.6308C28.3219 33.2684 31.1331 30.9613 33.111 28.0012C35.0888 25.0411 36.1445 21.561 36.1445 18.001C36.1393 13.2287 34.2412 8.65334 30.8667 5.27881C27.4922 1.90429 22.9168 0.00619276 18.1445 0.000976562ZM13.6436 26.1043C13.6425 26.1841 13.6101 26.2603 13.5533 26.3164C13.4965 26.3724 13.4199 26.4039 13.3401 26.4039H9.87171C9.79227 26.4039 9.71608 26.3723 9.6599 26.3161C9.60373 26.26 9.57217 26.1838 9.57217 26.1043V14.4498C9.57165 14.4102 9.57901 14.3708 9.59383 14.334C9.60865 14.2972 9.63063 14.2637 9.6585 14.2355C9.68636 14.2073 9.71956 14.1848 9.75616 14.1695C9.79276 14.1542 9.83204 14.1464 9.87171 14.1464H13.3401C13.3799 14.1464 13.4194 14.1542 13.4562 14.1695C13.493 14.1847 13.5265 14.2071 13.5547 14.2353C13.5828 14.2634 13.6052 14.2969 13.6205 14.3337C13.6357 14.3705 13.6436 14.41 13.6436 14.4498V26.1043ZM11.4837 12.5895C11.0526 12.5895 10.6312 12.4617 10.2728 12.2222C9.91439 11.9827 9.63503 11.6423 9.47007 11.2441C9.3051 10.8458 9.26194 10.4076 9.34604 9.98479C9.43014 9.562 9.63772 9.17364 9.94254 8.86882C10.2474 8.56401 10.6357 8.35643 11.0585 8.27233C11.4813 8.18823 11.9195 8.23139 12.3178 8.39635C12.716 8.56132 13.0564 8.84068 13.2959 9.1991C13.5354 9.55753 13.6633 9.97892 13.6633 10.41C13.6638 10.6964 13.6078 10.98 13.4984 11.2447C13.3891 11.5094 13.2285 11.7498 13.026 11.9523C12.8235 12.1548 12.5831 12.3153 12.3184 12.4247C12.0537 12.534 11.7701 12.5901 11.4837 12.5895ZM28.321 26.1043C28.32 26.1841 28.2875 26.2603 28.2307 26.3164C28.1739 26.3724 28.0973 26.4039 28.0175 26.4039H24.5492C24.5098 26.4039 24.4709 26.3961 24.4345 26.3811C24.3982 26.366 24.3652 26.3439 24.3374 26.3161C24.3096 26.2883 24.2875 26.2553 24.2724 26.219C24.2574 26.1826 24.2496 26.1437 24.2496 26.1043V19.8416C24.2496 18.1941 23.6624 17.0826 22.1883 17.0826C21.729 17.0852 21.2817 17.2298 20.9077 17.4965C20.5338 17.7632 20.2514 18.139 20.0994 18.5725C19.9955 18.8928 19.9501 19.2292 19.9654 19.5657V26.1043C19.9654 26.1848 19.9335 26.262 19.8765 26.3189C19.8196 26.3758 19.7424 26.4078 19.6619 26.4078H16.1936C16.1539 26.4078 16.1146 26.3999 16.078 26.3846C16.0414 26.3693 16.0082 26.3469 15.9804 26.3187C15.9525 26.2904 15.9305 26.257 15.9157 26.2202C15.9009 26.1834 15.8935 26.144 15.894 26.1043C15.894 24.4411 15.9374 16.3653 15.894 14.4656C15.8935 14.4259 15.9009 14.3866 15.9157 14.3498C15.9305 14.313 15.9525 14.2795 15.9804 14.2513C16.0082 14.223 16.0414 14.2006 16.078 14.1853C16.1146 14.17 16.1539 14.1621 16.1936 14.1621H19.6541C19.6941 14.1616 19.7338 14.1691 19.7708 14.1842C19.8079 14.1992 19.8415 14.2215 19.8698 14.2498C19.8981 14.2781 19.9205 14.3118 19.9355 14.3488C19.9506 14.3859 19.9581 14.4256 19.9575 14.4656V15.8963C20.3262 15.2563 20.8631 14.7295 21.51 14.3731C22.1568 14.0167 22.889 13.8442 23.6269 13.8744C26.3031 13.8744 28.3131 15.6244 28.3131 19.3923L28.321 26.1043ZM19.9654 15.9357V15.8924L19.9378 15.9357H19.9654ZM19.9378 15.9357H19.9654V15.8924L19.9378 15.9357ZM19.9378 15.9357H19.9654V15.8924L19.9378 15.9357ZM19.9378 15.9357H19.9654V15.8924L19.9378 15.9357ZM19.9378 15.9357H19.9654V15.8924L19.9378 15.9357ZM19.9378 15.9357H19.9654V15.8924L19.9378 15.9357ZM19.9378 15.9357H19.9654V15.8924L19.9378 15.9357ZM19.9378 15.9357H19.9654V15.8924L19.9378 15.9357ZM19.9378 15.9357H19.9654V15.8924L19.9378 15.9357ZM19.9378 15.9357H19.9654V15.8924L19.9378 15.9357ZM19.9378 15.9357H19.9654V15.8924L19.9378 15.9357ZM19.9378 15.9357H19.9654V15.8924L19.9378 15.9357ZM19.9378 15.9357H19.9654V15.8924L19.9378 15.9357ZM19.9378 15.9357H19.9654V15.8924L19.9378 15.9357ZM19.9378 15.9357H19.9654V15.8924L19.9378 15.9357Z" fill="white"/>
</svg>
