<svg width="33" height="33" viewBox="0 0 33 33" fill="none" xmlns="http://www.w3.org/2000/svg">
<path d="M18.098 15.0014H18.1225V14.9628L18.098 15.0014ZM18.098 15.0014H18.1225V14.9628L18.098 15.0014ZM18.098 15.0014H18.1225V14.9628L18.098 15.0014ZM18.098 15.0014H18.1225V14.9628L18.098 15.0014ZM18.098 15.0014H18.1225V14.9628L18.098 15.0014ZM18.098 15.0014H18.1225V14.9628L18.098 15.0014ZM18.098 15.0014H18.1225V14.9628L18.098 15.0014ZM18.098 15.0014H18.1225V14.9628L18.098 15.0014ZM18.098 15.0014H18.1225V14.9628L18.098 15.0014ZM18.098 15.0014H18.1225V14.9628L18.098 15.0014ZM18.098 15.0014H18.1225V14.9628L18.098 15.0014ZM18.098 15.0014H18.1225V14.9628L18.098 15.0014ZM18.098 15.0014H18.1225V14.9628L18.098 15.0014ZM18.098 15.0014H18.1225V14.9628L18.098 15.0014ZM18.098 15.0014H18.1225V14.9628L18.098 15.0014ZM18.098 15.0014H18.1225V14.9628L18.098 15.0014ZM16.5039 0.847656C13.3394 0.847656 10.246 1.78604 7.61479 3.54414C4.9836 5.30224 2.93284 7.8011 1.72184 10.7247C0.510839 13.6483 0.193986 16.8654 0.811349 19.9691C1.42871 23.0728 2.95256 25.9237 5.1902 28.1614C7.42784 30.399 10.2788 31.9229 13.3825 32.5402C16.4862 33.1576 19.7032 32.8407 22.6268 31.6297C25.5505 30.4187 28.0493 28.368 29.8074 25.7368C31.5655 23.1056 32.5039 20.0122 32.5039 16.8477C32.4993 12.6056 30.8121 8.53864 27.8125 5.53907C24.8129 2.53949 20.7459 0.852293 16.5039 0.847656ZM12.503 24.0506C12.5021 24.1216 12.4733 24.1893 12.4228 24.2391C12.3723 24.289 12.3042 24.3169 12.2333 24.3169H9.15029C9.07967 24.3169 9.01195 24.2888 8.96202 24.2389C8.91208 24.189 8.88403 24.1212 8.88403 24.0506V13.6911C8.88356 13.6558 8.89011 13.6208 8.90328 13.5881C8.91646 13.5554 8.93599 13.5257 8.96076 13.5006C8.98554 13.4755 9.01505 13.4555 9.04758 13.4419C9.08011 13.4283 9.11503 13.4213 9.15029 13.4213H12.2333C12.2687 13.4213 12.3038 13.4283 12.3365 13.4419C12.3692 13.4554 12.399 13.4753 12.424 13.5003C12.4491 13.5254 12.4689 13.5551 12.4825 13.5879C12.4961 13.6206 12.503 13.6557 12.503 13.6911V24.0506ZM10.5832 12.0375C10.2 12.0375 9.82543 11.9239 9.50683 11.711C9.18823 11.4981 8.93991 11.1955 8.79327 10.8415C8.64664 10.4875 8.60827 10.098 8.68303 9.72215C8.75778 9.34634 8.9423 9.00113 9.21324 8.73019C9.48419 8.45924 9.8294 8.27472 10.2052 8.19997C10.581 8.12521 10.9706 8.16358 11.3246 8.31021C11.6786 8.45685 11.9812 8.70517 12.194 9.02377C12.4069 9.34237 12.5206 9.71694 12.5206 10.1001C12.521 10.3547 12.4712 10.6068 12.374 10.8421C12.2768 11.0773 12.1341 11.2911 11.9541 11.4711C11.7741 11.6511 11.5604 11.7938 11.3251 11.891C11.0899 11.9882 10.8377 12.038 10.5832 12.0375ZM25.5497 24.0506C25.5487 24.1216 25.5199 24.1893 25.4694 24.2391C25.4189 24.289 25.3509 24.3169 25.2799 24.3169H22.1969C22.162 24.3169 22.1273 24.31 22.095 24.2966C22.0627 24.2832 22.0334 24.2636 22.0087 24.2389C21.9839 24.2142 21.9643 24.1848 21.9509 24.1525C21.9376 24.1202 21.9307 24.0856 21.9307 24.0506V18.4837C21.9307 17.0193 21.4087 16.0314 20.0984 16.0314C19.6901 16.0336 19.2925 16.1621 18.9601 16.3992C18.6277 16.6363 18.3767 16.9704 18.2416 17.3556C18.1492 17.6404 18.1089 17.9395 18.1225 18.2385V24.0506C18.1225 24.1222 18.0941 24.1908 18.0435 24.2414C17.9929 24.292 17.9243 24.3204 17.8527 24.3204H14.7697C14.7345 24.3204 14.6996 24.3134 14.667 24.2998C14.6345 24.2862 14.605 24.2663 14.5802 24.2412C14.5554 24.2161 14.5359 24.1863 14.5227 24.1536C14.5096 24.1209 14.503 24.0859 14.5035 24.0506C14.5035 22.5722 14.542 15.3937 14.5035 13.7051C14.503 13.6699 14.5096 13.6349 14.5227 13.6021C14.5359 13.5694 14.5554 13.5397 14.5802 13.5146C14.605 13.4895 14.6345 13.4695 14.667 13.4559C14.6996 13.4423 14.7345 13.4353 14.7697 13.4353H17.8457C17.8813 13.4349 17.9166 13.4415 17.9495 13.4549C17.9824 13.4683 18.0124 13.4882 18.0375 13.5133C18.0627 13.5385 18.0825 13.5684 18.0959 13.6013C18.1093 13.6343 18.1159 13.6696 18.1155 13.7051V14.9768C18.4432 14.408 18.9204 13.9397 19.4954 13.6229C20.0704 13.3061 20.7212 13.1528 21.3771 13.1796C23.7559 13.1796 25.5427 14.7351 25.5427 18.0844L25.5497 24.0506ZM18.1225 15.0119V14.9733L18.098 15.0119H18.1225ZM18.098 15.0119H18.1225V14.9733L18.098 15.0119ZM18.098 15.0119H18.1225V14.9733L18.098 15.0119ZM18.098 15.0119H18.1225V14.9733L18.098 15.0119ZM18.098 15.0119H18.1225V14.9733L18.098 15.0119ZM18.098 15.0119H18.1225V14.9733L18.098 15.0119ZM18.098 15.0119H18.1225V14.9733L18.098 15.0119ZM18.098 15.0119H18.1225V14.9733L18.098 15.0119ZM18.098 15.0119H18.1225V14.9733L18.098 15.0119ZM18.098 15.0119H18.1225V14.9733L18.098 15.0119ZM18.098 15.0119H18.1225V14.9733L18.098 15.0119ZM18.098 15.0119H18.1225V14.9733L18.098 15.0119ZM18.098 15.0119H18.1225V14.9733L18.098 15.0119ZM18.098 15.0119H18.1225V14.9733L18.098 15.0119ZM18.098 15.0119H18.1225V14.9733L18.098 15.0119Z" fill="#1D1D1D"/>
</svg>
