<svg width="18" height="16" viewBox="0 0 18 16" fill="none" xmlns="http://www.w3.org/2000/svg">
<path d="M17.7436 3.7032L15.6325 2.07653C15.4891 1.98444 15.3331 1.91349 15.1694 1.86587C15.0064 1.8131 14.8367 1.78377 14.6654 1.77875H8.58898L9.30098 6.2232H14.6654C14.8112 6.2232 14.9934 6.19031 15.1685 6.13609C15.3436 6.08187 15.5125 6.0072 15.6316 5.92631L17.7428 4.29787C17.8628 4.21698 17.9223 4.10942 17.9223 4.00098C17.9223 3.89253 17.8628 3.78498 17.7436 3.7032ZM7.70009 0.000976562H6.8112C6.69332 0.000976563 6.58028 0.0478018 6.49693 0.131151C6.41358 0.214501 6.36675 0.327547 6.36675 0.445421V3.55653H3.40142C3.25386 3.55653 3.07253 3.58942 2.89742 3.64453C2.72142 3.69787 2.55342 3.77164 2.43431 3.85431L0.323198 5.48098C0.203198 5.56187 0.144531 5.67031 0.144531 5.77875C0.144531 5.88631 0.203198 5.99387 0.323198 6.07653L2.43431 7.70498C2.55342 7.78587 2.72142 7.86053 2.89742 7.91387C3.07253 7.96809 3.25386 8.00098 3.40142 8.00098H6.36675V15.5565C6.36675 15.6744 6.41358 15.7875 6.49693 15.8708C6.58028 15.9542 6.69332 16.001 6.8112 16.001H7.70009C7.81796 16.001 7.93101 15.9542 8.01436 15.8708C8.09771 15.7875 8.14453 15.6744 8.14453 15.5565V0.445421C8.14453 0.327547 8.09771 0.214501 8.01436 0.131151C7.93101 0.0478018 7.81796 0.000976563 7.70009 0.000976562Z" fill="white"/>
</svg>
