<svg width="33" height="33" viewBox="0 0 33 33" fill="none" xmlns="http://www.w3.org/2000/svg">
<path fill-rule="evenodd" clip-rule="evenodd" d="M16.5039 0.847656C7.66735 0.847656 0.503906 8.0111 0.503906 16.8477C0.503906 25.6842 7.66735 32.8477 16.5039 32.8477C25.3405 32.8477 32.5039 25.6842 32.5039 16.8477C32.5039 8.0111 25.3405 0.847656 16.5039 0.847656ZM8.51172 9.84766C7.40715 9.84766 6.51172 10.7431 6.51172 11.8477V21.8477C6.51172 22.9522 7.40715 23.8477 8.51172 23.8477H24.5416C25.6462 23.8477 26.5416 22.9522 26.5416 21.8477V11.8477C26.5416 10.7431 25.6462 9.84766 24.5416 9.84766H8.51172Z" fill="#1D1D1D"/>
<path opacity="0.8" fill-rule="evenodd" clip-rule="evenodd" d="M6.51172 11.8477C6.51172 11.3172 6.72275 10.8085 7.09838 10.4334C7.47401 10.0584 7.98348 9.84766 8.51471 9.84766H24.5386C25.0698 9.84766 25.5793 10.0584 25.9549 10.4334C26.3306 10.8085 26.5416 11.3172 26.5416 11.8477V21.8477C26.5416 22.3781 26.3306 22.8868 25.9549 23.2619C25.5793 23.6369 25.0698 23.8477 24.5386 23.8477H8.51471C7.98348 23.8477 7.47401 23.6369 7.09838 23.2619C6.72275 22.8868 6.51172 22.3781 6.51172 21.8477V11.8477ZM8.51471 13.0277V20.8477C8.51471 21.1129 8.62022 21.3672 8.80804 21.5548C8.99585 21.7423 9.25059 21.8477 9.5162 21.8477H23.5371C23.8027 21.8477 24.0575 21.7423 24.2453 21.5548C24.4331 21.3672 24.5386 21.1129 24.5386 20.8477V16.8477V13.0277L16.5267 18.0277L8.51471 13.0277ZM22.6488 11.8477H10.4045L16.5267 15.6677L22.6488 11.8477Z" fill="#1D1D1D"/>
<path d="M16.5232 15.8477L10.4114 11.8477L22.6602 11.8477L16.5232 15.8477Z" fill="#EF3D2C"/>
</svg>
