<svg width="17" height="16" viewBox="0 0 17 16" fill="none" xmlns="http://www.w3.org/2000/svg">
<path d="M14.5768 10.9118L12.3145 10.6535C11.7712 10.5912 11.2368 10.7782 10.8538 11.1612L9.21494 12.8001C6.69431 11.5175 4.62793 9.46002 3.34535 6.93048L4.99311 5.28272C5.3761 4.89972 5.56315 4.36532 5.5008 3.822L5.2425 1.57748C5.13562 0.677895 4.37854 0.000976562 3.47005 0.000976562H1.92917C0.922696 0.000976562 0.0854554 0.838217 0.147803 1.84469C0.619864 9.45111 6.70322 15.5256 14.3007 15.9976C15.3072 16.06 16.1444 15.2227 16.1444 14.2163V12.6754C16.1534 11.7758 15.4764 11.0187 14.5768 10.9118Z" fill="white"/>
</svg>
