<svg width="14" height="14" viewBox="0 0 14 14" fill="none" xmlns="http://www.w3.org/2000/svg">
<path d="M0.956956 11.6562C0.566431 12.0467 0.566431 12.6799 0.956956 13.0704C1.34748 13.4609 1.98064 13.4609 2.37117 13.0704L0.956956 11.6562ZM13.6641 1.36328C13.6641 0.810995 13.2163 0.36328 12.6641 0.36328L3.66406 0.363281C3.11178 0.36328 2.66406 0.810996 2.66406 1.36328C2.66406 1.91556 3.11178 2.36328 3.66406 2.36328L11.6641 2.36328L11.6641 10.3633C11.6641 10.9156 12.1118 11.3633 12.6641 11.3633C13.2163 11.3633 13.6641 10.9156 13.6641 10.3633L13.6641 1.36328ZM2.37117 13.0704L13.3712 2.07039L11.957 0.656174L0.956956 11.6562L2.37117 13.0704Z" fill="#2EA4FF"/>
</svg>
