<svg width="33" height="33" viewBox="0 0 33 33" fill="none" xmlns="http://www.w3.org/2000/svg">
<path fill-rule="evenodd" clip-rule="evenodd" d="M16.5039 0.847656C7.66735 0.847656 0.503906 8.0111 0.503906 16.8477C0.503906 25.6842 7.66735 32.8477 16.5039 32.8477C25.3405 32.8477 32.5039 25.6842 32.5039 16.8477C32.5039 8.0111 25.3405 0.847656 16.5039 0.847656ZM8.08594 12.9465L14.3635 7.43164H24.9238L23.9851 8.37034V9.83705C24.1611 9.89572 24.2785 10.1304 24.2785 10.3064V16.3493C24.2198 16.9946 23.0464 17.112 22.9291 16.3493V10.3064C22.9291 10.1304 23.0464 9.89572 23.2224 9.77839L23.2811 8.83969L20.641 11.0691C20.6706 11.18 20.7002 11.2872 20.729 11.3918C20.9292 12.1174 21.0956 12.7202 20.993 13.5918C20.8259 14.5945 20.1828 15.1807 19.5086 15.7952C19.236 16.0437 18.9583 16.2968 18.705 16.5839C18.2943 17.288 18.5876 17.8747 19.937 18.9307C21.169 19.9281 21.9904 21.0428 21.7557 23.0962C21.2277 25.1496 18.705 26.3229 16.4755 26.2643C14.7742 26.2643 11.3127 25.7362 11.078 23.0962C11.078 20.6907 14.5982 19.224 17.1209 19.1654C16.4755 18.4613 16.2995 17.9333 16.7102 16.8773C14.5395 16.7013 12.4274 15.5866 12.1341 12.9465H8.08594ZM17.7663 15.7039C14.1875 16.2906 12.6621 10.5997 15.5369 9.89572C18.8223 9.25037 20.4063 14.9412 17.7663 15.7039ZM18.0596 24.5629C21.0517 23.6828 20.993 20.7494 17.4729 19.9867C15.3608 19.9867 13.3074 21.3361 13.3074 22.8028C13.2488 24.3282 15.4782 25.0909 18.0596 24.5629Z" fill="#1D1D1D"/>
</svg>
