<svg width="21" height="15" viewBox="0 0 21 15" fill="none" xmlns="http://www.w3.org/2000/svg">
<path opacity="0.8" fill-rule="evenodd" clip-rule="evenodd" d="M0.714844 2.58594C0.714844 2.0555 0.925557 1.5468 1.30063 1.17172C1.6757 0.796651 2.18441 0.585938 2.71484 0.585938H18.7148C19.2453 0.585938 19.754 0.796651 20.1291 1.17172C20.5041 1.5468 20.7148 2.0555 20.7148 2.58594V12.5859C20.7148 13.1164 20.5041 13.6251 20.1291 14.0002C19.754 14.3752 19.2453 14.5859 18.7148 14.5859H2.71484C2.18441 14.5859 1.6757 14.3752 1.30063 14.0002C0.925557 13.6251 0.714844 13.1164 0.714844 12.5859V2.58594ZM2.71484 3.76594V11.5859C2.71484 11.8512 2.8202 12.1055 3.00774 12.293C3.19527 12.4806 3.44963 12.5859 3.71484 12.5859H17.7148C17.9801 12.5859 18.2344 12.4806 18.422 12.293C18.6095 12.1055 18.7148 11.8512 18.7148 11.5859V7.58594V3.76594L10.7148 8.76594L2.71484 3.76594ZM16.8278 2.58594H4.60184L10.7148 6.40594L16.8278 2.58594Z" fill="#1D1D1D"/>
<path d="M10.7121 6.58594L4.60938 2.58594L16.8398 2.58594L10.7121 6.58594Z" fill="#EF3D2C"/>
</svg>
