<svg width="37" height="36" viewBox="0 0 37 36" fill="none" xmlns="http://www.w3.org/2000/svg">
<path d="M0.144531 18.001C0.144531 8.05985 8.20341 0.000976562 18.1445 0.000976562C28.0857 0.000976562 36.1445 8.05985 36.1445 18.001C36.1445 27.9421 28.0857 36.001 18.1445 36.001C8.20341 36.001 0.144531 27.9421 0.144531 18.001Z" fill="#E5E8EC"/>
<path fill-rule="evenodd" clip-rule="evenodd" d="M6.90625 12.376C6.90625 11.7792 7.14366 11.2069 7.56624 10.785C7.98883 10.363 8.56198 10.126 9.15961 10.126H27.1865C27.7841 10.126 28.3573 10.363 28.7799 10.785C29.2025 11.2069 29.4399 11.7792 29.4399 12.376V23.626C29.4399 24.2227 29.2025 24.795 28.7799 25.217C28.3573 25.6389 27.7841 25.876 27.1865 25.876H9.15961C8.56198 25.876 7.98883 25.6389 7.56624 25.217C7.14366 24.795 6.90625 24.2227 6.90625 23.626V12.376ZM9.15961 13.7035V22.501C9.15961 22.7993 9.27832 23.0855 9.48961 23.2965C9.7009 23.5075 9.98748 23.626 10.2863 23.626H26.0598C26.3586 23.626 26.6452 23.5075 26.8565 23.2965C27.0678 23.0855 27.1865 22.7993 27.1865 22.501V18.001V13.7035L18.1731 19.3285L9.15961 13.7035ZM25.0605 12.376H11.2857L18.1731 16.6735L25.0605 12.376Z" fill="#022140"/>
</svg>
